<svg width="569" height="421" viewBox="0 0 569 421" fill="none" xmlns="http://www.w3.org/2000/svg">
    <path d="M260.542 74.3571C260.858 74.2818 260.622 74.7716 260.622 74.7716C259.848 75.1476 246.218 79.945 246.255 86.0088C246.268 88.1579 246.293 89.5054 248.165 91.1276C251.554 94.0634 257.55 93.3396 264.368 93.818C272.094 94.36 277.669 92.5864 285.271 93.2902C291.28 93.8463 296.299 93.5013 299.334 96.1302C301.667 98.1509 302.926 99.7897 301.455 102.585C299.491 106.319 294.931 108.455 288.625 110.807C283.901 112.569 279.995 113.42 274.886 114.324C248.586 118.976 240.021 102.792 213.942 108.725C203.486 111.103 195.556 112.038 188.617 117.615C182.772 122.312 181.828 125.396 183.103 130.023C184.479 135.017 190.921 135.95 197.093 139.132C204.89 143.152 213.134 143.142 219.738 147.781C223.543 150.454 226.541 151.866 227.355 155.543C227.918 158.083 227.286 159.725 226.075 162.481C223.42 168.521 210.347 178.426 210.347 178.426L208.759 177.316C208.759 177.316 221.223 168.649 223.933 162.703C225.109 160.122 225.805 158.574 225.296 156.192C224.52 152.561 221.14 151.325 217.3 148.731C210.597 144.203 202.699 144.045 195.075 139.995C188.788 136.657 182.316 135.59 180.962 130.414C179.726 125.689 181.249 121.959 187.172 117.168C194.093 111.57 203.228 109.998 214.575 107.481C240.691 101.689 249.266 118.164 275.519 113.08C280.463 112.123 283.529 111.818 288.04 110.038C293.501 107.884 297.666 106.089 299.314 102.807C300.479 100.484 299.901 99.0919 298.249 97.2975C295.516 94.3298 290.333 94.375 284.017 93.7464C277.116 93.0596 272.017 94.7528 264.876 94.3895C257.52 94.0152 251.016 94.8939 247.371 91.7827C245.313 90.0265 245.348 88.5335 245.415 86.183C245.587 80.0621 258.18 75.2781 260.542 74.3571Z" fill="#3E404E"/>
    <path d="M260.542 74.3571C260.237 74.4535 260.622 74.7716 260.622 74.7716C260.622 74.7716 284.257 65.3308 295.282 68.2417C299.189 69.2734 301.631 69.9319 303.691 72.0036C307.42 75.753 303.24 79.5699 300.857 84.5301C298.156 90.1503 292.265 93.1758 289.918 98.7875C288.063 103.223 285.039 106.542 288.377 109.9C290.944 112.481 293.327 114.135 299.12 114.444C306.856 114.857 312.923 112.708 320.216 109.451C325.68 107.011 329.094 104.704 333.179 101.588C354.206 85.5474 328.821 71.9011 352.073 56.6231C361.396 50.4975 366.883 45.4381 380.35 43.2755C391.695 41.4539 397.761 42.2663 405.579 45.3528C414.016 48.6839 412.641 53.5999 415.489 59.3979C419.088 66.7226 415.134 72.4402 420.43 79.2312C423.481 83.1441 424.622 85.8976 430.929 88.212C435.287 89.8113 438.578 90.154 444.175 90.6247C456.442 91.6563 480.719 87.2956 480.719 87.2956L479.456 85.6648C479.456 85.6648 457.724 90.1923 445.601 89.2436C440.341 88.8318 437.189 88.5783 433.094 87.0918C426.852 84.8254 426.215 81.8907 423.324 77.9913C418.278 71.1839 421.759 65.6267 418.025 58.4082C414.945 52.4557 416.091 47.4559 407.313 44.0533C399.298 40.9462 391.779 40.229 380.227 42.0605C366.729 44.2003 359.506 49.7926 349.506 56.4711C326.492 71.8413 352.401 85.633 330.612 101.436C326.508 104.412 324.491 106.395 319.096 108.679C312.565 111.444 307.31 113.482 300.546 113.063C295.759 112.767 293.5 111.703 291.021 109.702C286.921 106.393 289.478 102.817 291.347 98.1341C293.391 93.0176 298.908 90.2838 301.655 85.1547C304.485 79.8709 309.189 75.7745 305.264 71.7639C303.048 69.5 300.312 68.814 296 67.7415C284.771 64.9484 262.538 73.7277 260.542 74.3571Z" fill="#3E404E"/>
    <path d="M485.094 76.6432C485.094 76.6432 490.703 79.1866 491.767 88.1725C492.052 90.8146 490.79 92.7664 488.982 94.6222C487.132 96.5985 484.393 96.6053 482.738 98.6274C483.882 96.713 483.548 94.4343 485.504 92.9067C482.584 93.8812 481.077 96.2316 480.687 99.3013C480.338 102.25 479.076 104.202 475.938 104.522C477.537 103.188 476.996 101.349 476.925 99.5235C476.753 101.667 475.163 102.678 473.352 103.115C471.146 103.703 470.191 104.326 468.504 106.064C469.366 102.926 467.883 101.224 471.559 99.7427C473.575 98.9462 475.803 97.4666 474.186 94.8693C473.641 99.4344 469.96 97.9971 466.99 99.4161C464.89 100.453 465.316 102.167 464.14 103.797C462.964 105.427 460.923 105.696 459.084 105.686C462.159 104.797 461.388 101.21 462.118 98.676C462.935 95.7395 466.669 95.0707 468.222 92.4379C466.834 90.0901 465.471 92.9307 464.899 93.8879C463.962 95.3621 462.752 96.7883 460.738 96.0041C465.472 94.4303 462.257 88.5068 465.681 86.1679C466.995 85.2714 470.325 86.6587 470.991 85.0556C472.031 82.6115 467.93 83.8782 467.054 84.5029C467.283 83.1717 468.294 81.8616 469.562 81.2475C471.186 80.4405 472.333 81.5253 473.748 81.2395C475.635 80.8854 475.815 78.418 473.704 78.3607C472.922 78.3395 471.283 79.7136 470.336 80.0121C471.495 77.5307 474.331 75.2164 476.928 74.6384C480.155 73.9153 482.385 75.4349 485.094 76.6432Z" fill="url(#paint0_linear_402_5)"/>
    <path d="M486.656 79.7836C487.22 80.44 487.18 80.4789 487.698 81.3318C488.806 83.1171 489.025 85.7005 487.367 87.1796C486.42 87.9967 485.306 87.7678 484.293 88.3477C483.222 88.9467 483.173 90.1677 482.602 91.1072C482.553 90.4368 482.555 89.9048 482.41 89.2531C482.35 88.8584 482.253 88.4239 482.401 88.0512C481.992 88.7559 481.921 89.5826 481.474 90.287C480.906 91.1477 480.058 91.4142 479.132 91.7193C478.188 92.0044 477.269 92.1126 476.242 92.1013C475.823 92.0967 475.276 91.9922 474.889 92.1455C474.385 92.3764 474.193 92.8669 473.799 93.2172C474.025 91.8602 474.11 91.1716 475.495 90.7928C476.919 90.4143 476.99 89.1345 477.921 88.2187C477.12 88.7419 476.101 88.9868 475.555 87.8972C477.245 88.4674 477.945 87.1748 478.177 85.6603C478.426 84.2051 478.383 82.924 479.527 81.912C478.824 81.8846 478.47 82.6491 478.034 83.0777C477.52 83.545 476.941 83.7356 476.27 83.8662C476.349 83.7882 476.466 83.7107 476.508 83.6324C476.775 83.1427 477.264 82.8132 477.531 82.3236C477.779 81.8534 477.93 81.4019 478.121 80.9115C478.503 79.9306 479.49 79.0745 480.349 78.5323C481.775 77.6219 484.39 77.9265 486.088 79.2454L486.254 79.3852C486.401 79.505 486.529 79.6443 486.656 79.7836Z" fill="#FFC929"/>
    <path d="M487.144 80.3187C487.753 81.0694 487.841 81.6783 487.82 82.66C487.787 83.7562 486.812 84.5301 486.121 85.2503C486.29 84.9212 486.246 84.5959 486.284 84.2313C485.912 84.6585 485.562 84.4907 485.144 84.7387C484.704 85.007 484.471 85.564 484.061 85.8437C484.253 85.369 483.739 84.8721 484.071 84.4437C483.623 84.6177 483.783 85.1974 483.474 85.4803C483.207 85.7227 482.619 85.8296 482.323 85.9979C482.356 85.884 483.136 84.7486 482.545 85.0643C482.432 85.134 482.333 85.5593 482.168 85.7004C482.025 85.8004 481.812 85.8668 481.639 85.9136C481.244 86.0161 480.842 85.9198 480.485 86.1071C480.077 86.3242 479.877 86.7254 479.667 87.1368C479.895 86.3811 479.754 85.8855 480.39 85.383C480.698 85.1211 480.824 84.8951 481.042 84.5781C481.229 84.3123 481.474 84.1946 481.721 83.9516C480.939 83.7388 480.789 84.6223 480.14 84.8109C480.509 84.509 480.397 84.0666 480.517 83.6628C480.646 83.2698 480.967 82.8932 481.344 82.7274C481.619 82.6003 482.332 82.7168 482.292 82.2453C482.253 81.6902 481.49 81.9901 481.265 82.1711C481.404 81.768 481.725 81.3705 482.181 81.2699C482.576 81.1884 482.975 81.4099 483.167 80.9353C482.834 80.4441 482.36 80.9307 481.907 80.906C482.553 80.3725 482.85 79.2219 483.864 79.4315C484.135 79.4923 484.787 80.1399 484.828 79.65C484.856 79.2538 484.177 78.9607 483.883 79.0037C484.87 78.6272 486.277 79.3091 487.015 80.1788L487.144 80.3187Z" fill="#F9F079"/>
    <path d="M481.547 69.2805C480.73 70.7015 479.97 72.0759 479.258 73.3937C478.546 74.7116 481.196 79.0784 483.933 82.0588C486.648 85.0154 491.724 89.1 493.033 88.4319C494.341 87.7638 495.705 87.049 497.118 86.2795L481.547 69.2805Z" fill="url(#paint1_linear_402_5)"/>
    <path d="M521.645 71.7988C538.319 60.7288 555.033 46.012 562.83 25.1571L543.917 4.50946C523.406 11.4828 508.339 27.9987 496.794 44.6691L485.71 62.1696C484.692 63.891 483.717 65.554 482.77 67.1836L499.205 85.1253C500.824 84.2291 502.482 83.3094 504.192 82.3473L521.645 71.7988ZM542.248 25.7701C544.397 28.2094 544.317 31.9481 542.036 34.1899C539.758 36.4291 536.144 36.3212 533.906 33.9698C531.756 31.5305 531.842 27.7876 534.12 25.5484C536.401 23.3066 540.009 23.4187 542.248 25.7701Z" fill="url(#paint2_linear_402_5)"/>
    <path d="M505.866 87.071L504.192 82.3479L521.645 71.7994C521.02 75.2359 520.022 88.8902 520.022 88.8902L500.177 106.079L496.53 102.097L505.866 87.071Z" fill="url(#paint3_linear_402_5)"/>
    <path d="M480.233 45.4524C480.233 45.4524 493.446 45.1333 496.794 44.6696L485.709 62.1701L481.244 60.191L466.269 69.0612L462.622 65.0802L480.233 45.4524Z" fill="url(#paint4_linear_402_5)"/>
    <path d="M563.683 22.6511C565.825 16.0066 568.342 0.51472 568.132 0.285562C567.92 0.0546063 552.898 1.89398 546.381 3.76211L563.683 22.6511Z" fill="url(#paint5_linear_402_5)"/>
    <path d="M481.547 69.2804L497.118 86.2795L499.205 85.1253L482.77 67.1836L481.547 69.2804Z" fill="url(#paint6_linear_402_5)"/>
    <path d="M543.917 4.50987L562.83 25.1575L563.684 22.6515L546.381 3.76257L543.917 4.50987Z" fill="url(#paint7_linear_402_5)"/>
    <path d="M542.036 34.1897C544.317 31.9479 544.397 28.2092 542.249 25.7699C540.009 23.4184 536.401 23.3064 534.121 25.5481C531.843 27.7874 531.756 31.5303 533.907 33.9696C536.145 36.321 539.758 36.4289 542.036 34.1897Z" fill="url(#paint8_linear_402_5)"/>
    <path d="M77.3859 406.89V373.456H7.52862L0.675537 355.365L50.8578 236.972H89.7656L45.9943 339.793H77.3859V310.939L84.6811 290.1H115.631V339.793H130.442V367.273L115.631 373.456V406.89H77.3859Z" fill="#3E404E"/>
    <g filter="url(#filter0_d_402_5)">
    <path d="M271.647 293.167C290.423 337.632 270.846 389.446 227.92 408.895C184.995 428.345 134.976 408.066 116.2 363.6C97.4242 319.134 117.001 267.321 159.926 247.871C202.852 228.421 252.871 248.701 271.647 293.167Z" fill="url(#paint9_linear_402_5)"/>
    <path d="M160.155 302.691C163.044 309.531 160.033 317.503 153.43 320.496C146.826 323.489 139.13 320.369 136.241 313.529C133.352 306.688 136.363 298.717 142.967 295.724C149.571 292.731 157.266 295.85 160.155 302.691Z" fill="url(#paint10_linear_402_5)"/>
    <path d="M239.863 266.895C241.522 268.888 241.208 271.495 239.163 272.717C237.118 273.939 234.115 273.314 232.456 271.321C230.797 269.327 231.11 266.721 233.156 265.499C235.201 264.277 238.204 264.902 239.863 266.895Z" fill="url(#paint11_linear_402_5)"/>
    <path d="M269.836 330.054C272.418 330.986 273.503 334.74 272.259 338.441C271.015 342.141 267.914 344.386 265.331 343.455C262.749 342.524 261.664 338.769 262.908 335.068C264.152 331.368 267.254 329.123 269.836 330.054Z" fill="url(#paint12_linear_402_5)"/>
    <path d="M191.446 243.683C191.612 245.192 188.701 246.776 184.943 247.221C181.184 247.666 178.003 246.805 177.836 245.296C177.669 243.787 180.581 242.203 184.339 241.758C188.097 241.312 191.279 242.174 191.446 243.683Z" fill="url(#paint13_linear_402_5)"/>
    <path d="M223.287 378.872C225.11 388.703 217.459 398.49 206.198 400.73C194.937 402.971 184.331 396.816 182.508 386.984C180.685 377.153 188.336 367.366 199.597 365.126C210.858 362.886 221.464 369.04 223.287 378.872Z" fill="url(#paint14_linear_402_5)"/>
    <path d="M165.299 244.352C165.865 245.552 162.492 248.464 157.764 250.857C153.037 253.249 148.745 254.216 148.179 253.017C147.613 251.817 150.987 248.905 155.715 246.512C160.442 244.119 164.734 243.152 165.299 244.352Z" fill="#C00C14"/>
    <path d="M166.043 245.929C167.02 247.999 163.979 251.617 159.251 254.01C154.524 256.402 149.899 256.664 148.923 254.593C147.946 252.523 150.987 248.905 155.715 246.512C160.442 244.12 165.067 243.858 166.043 245.929Z" fill="#C00C14"/>
    <path d="M162.594 244.6C162.758 244.95 160.208 246.591 156.897 248.267C153.586 249.942 150.768 251.018 150.603 250.669C150.439 250.32 152.989 248.678 156.301 247.002C159.612 245.327 162.429 244.251 162.594 244.6Z" fill="#400003"/>
    <path d="M106.153 341.338C108.159 340.705 111.808 347.071 114.303 355.556C116.797 364.041 117.192 371.433 115.185 372.066C113.178 372.699 109.529 366.334 107.035 357.848C104.541 349.363 104.146 341.971 106.153 341.338Z" fill="url(#paint15_linear_402_5)"/>
    <path d="M108.789 340.506C112.252 339.414 117.081 345.407 119.575 353.892C122.07 362.377 121.284 370.141 117.821 371.234C114.358 372.326 109.529 366.333 107.034 357.848C104.54 349.362 105.326 341.598 108.789 340.506Z" fill="url(#paint16_linear_402_5)"/>
    <path d="M105.841 345.905C106.425 345.721 108.315 350.389 110.061 356.332C111.808 362.275 112.751 367.242 112.167 367.426C111.583 367.61 109.694 362.942 107.947 356.999C106.2 351.056 105.257 346.09 105.841 345.905Z" fill="#400104"/>
    <path d="M177.706 413.203C177.784 412.052 184.785 411.262 193.341 411.438C201.898 411.614 208.771 412.69 208.692 413.841C208.614 414.991 201.613 415.782 193.057 415.606C184.5 415.43 177.627 414.354 177.706 413.203Z" fill="url(#paint17_linear_402_5)"/>
    <path d="M177.809 411.691C177.945 409.705 184.992 408.238 193.548 408.414C202.105 408.59 208.932 410.342 208.796 412.328C208.66 414.314 201.614 415.782 193.057 415.606C184.501 415.43 177.674 413.677 177.809 411.691Z" fill="url(#paint18_linear_402_5)"/>
    <path d="M181.77 414.156C181.793 413.821 186.67 413.65 192.663 413.773C198.655 413.896 203.495 414.268 203.472 414.603C203.449 414.938 198.573 415.109 192.58 414.986C186.587 414.862 181.747 414.491 181.77 414.156Z" fill="#150303"/>
    <path d="M265.851 377.69C264.183 376.903 265.344 370.549 268.444 363.497C271.545 356.446 275.41 351.367 277.078 352.154C278.745 352.941 277.584 359.295 274.484 366.346C271.384 373.398 267.519 378.477 265.851 377.69Z" fill="url(#paint19_linear_402_5)"/>
    <path d="M263.659 376.657C260.781 375.299 260.961 368.482 264.061 361.431C267.162 354.379 272.008 349.763 274.886 351.121C277.764 352.478 277.584 359.296 274.484 366.347C271.383 373.399 266.537 378.015 263.659 376.657Z" fill="url(#paint20_linear_402_5)"/>
    <path d="M268.603 374.885C268.117 374.656 269.484 370.467 271.655 365.528C273.827 360.59 275.98 356.772 276.466 357.001C276.951 357.23 275.584 361.419 273.413 366.357C271.242 371.296 269.088 375.114 268.603 374.885Z" fill="#130406"/>
    <path d="M266.303 279.823C265.359 280.49 262.466 277.796 259.841 273.807C257.216 269.818 255.853 266.044 256.796 265.378C257.74 264.711 260.633 267.405 263.258 271.394C265.883 275.383 267.246 279.157 266.303 279.823Z" fill="url(#paint21_linear_402_5)"/>
    <path d="M265.063 280.698C263.435 281.848 259.987 279.546 257.362 275.557C254.737 271.568 253.929 267.403 255.557 266.253C257.185 265.103 260.633 267.405 263.258 271.394C265.883 275.383 266.691 279.549 265.063 280.698Z" fill="url(#paint22_linear_402_5)"/>
    <path d="M265.749 277.398C265.474 277.591 263.761 275.484 261.923 272.69C260.084 269.896 258.816 267.474 259.091 267.281C259.365 267.087 261.078 269.194 262.917 271.988C264.756 274.782 266.023 277.204 265.749 277.398Z" fill="#3D0002"/>
    <path d="M213.455 316.56C213.455 321.226 209.803 325.009 205.298 325.009C200.793 325.009 197.141 321.226 197.141 316.56C197.141 311.893 200.793 308.11 205.298 308.11C209.803 308.11 213.455 311.893 213.455 316.56Z" fill="#91080D"/>
    <path d="M142.978 378.3C140.93 380.128 136.886 378.743 133.946 375.208C131.005 371.672 130.282 367.324 132.33 365.497C134.377 363.669 138.421 365.054 141.362 368.589C144.302 372.125 145.026 376.473 142.978 378.3Z" fill="#79080D"/>
    <path d="M206.929 259.101C206.929 261.901 203.277 264.171 198.772 264.171C194.267 264.171 190.615 261.901 190.615 259.101C190.615 256.301 194.267 254.032 198.772 254.032C203.277 254.032 206.929 256.301 206.929 259.101Z" fill="#BD0C14"/>
    <path d="M255.067 366.008C256.845 368.118 255.533 372.316 252.139 375.384C248.744 378.452 244.552 379.229 242.775 377.119C240.997 375.009 242.309 370.812 245.703 367.744C249.098 364.675 253.29 363.899 255.067 366.008Z" fill="#580508"/>
    </g>
    <path d="M124.972 255.322L128.775 256.854L141.027 252.258C141.027 252.258 143.55 254.442 145.041 255.978C146.159 257.13 147.029 257.611 147.788 259.042C148.09 259.613 148.614 259.954 148.421 260.574C148.26 261.095 147.856 261.248 147.365 261.449C146.751 261.7 146.33 261.538 145.675 261.449C144.138 261.241 142.295 259.699 141.661 260.136C141.027 260.574 140.961 261.615 140.605 262.981C140.249 264.347 142.783 268.106 141.661 271.078C141.352 271.898 141.367 272.658 140.605 273.048C140.013 273.35 139.548 273.239 138.915 273.048C137.738 272.691 137.532 271.662 136.802 270.64C135.442 268.735 134.267 265.169 134.267 265.169C134.267 265.169 135.084 267.937 135.324 269.765C135.491 271.038 135.839 271.802 135.535 273.048C135.381 273.679 135.427 274.224 134.901 274.579C134.549 274.818 134.265 274.798 133.845 274.798C133.424 274.798 133.171 274.761 132.788 274.579C132.097 274.25 131.937 273.707 131.521 273.048C130.934 272.117 130.865 271.452 130.465 270.422C129.578 268.139 128.352 264.513 128.352 264.513C128.352 264.513 128.764 268.55 128.352 271.078C128.225 271.855 128.571 272.625 127.93 273.048C127.643 273.237 127.425 273.266 127.084 273.266C126.744 273.266 126.547 273.198 126.239 273.048C125.433 272.652 125.381 271.9 124.972 271.078C124.338 269.805 124.169 268.985 123.916 267.577C123.522 265.392 123.391 264.113 123.493 261.887C123.557 260.51 123.602 259.725 123.916 258.386C124.205 257.151 124.972 255.322 124.972 255.322Z" fill="#C0C0C0"/>
    <path d="M128.352 194.047C128.352 194.047 141.781 179.057 152.858 173.477C164.688 167.517 185.814 166.255 185.814 166.255C185.814 166.255 194.39 179.123 198.489 188.139C204.652 201.691 209.052 224.904 209.052 224.904L162.787 253.134C162.787 253.134 150.219 238.233 143.774 227.53C136.372 215.237 128.352 194.047 128.352 194.047Z" fill="#CACACA"/>
    <path d="M144.83 170.851C133.753 176.431 120.324 191.421 120.324 191.421C120.324 191.421 128.344 212.611 135.746 224.903C142.191 235.607 154.759 250.507 154.759 250.507L162.787 253.134C162.787 253.134 150.219 238.233 143.774 227.53C136.372 215.237 128.352 194.047 128.352 194.047C128.352 194.047 141.78 179.057 152.858 173.477C164.688 167.517 185.814 166.255 185.814 166.255C185.814 166.255 194.39 179.123 198.489 188.139C204.182 200.657 208.371 221.419 208.976 224.513L209.052 224.466C209.052 224.466 206.312 203.293 201.024 190.984C196.531 180.522 185.814 166.255 185.814 166.255L177.786 163.629C177.786 163.629 156.66 164.891 144.83 170.851Z" fill="#ACAAAA"/>
    <path d="M120.324 191.421C120.324 191.421 128.344 212.611 135.746 224.904C142.191 235.607 154.759 250.507 154.759 250.507L162.787 253.134C162.787 253.134 150.219 238.233 143.774 227.53C136.372 215.237 128.352 194.047 128.352 194.047L120.324 191.421Z" fill="#BBB8B8"/>
    <path d="M134.267 265.17C134.267 265.17 135.442 268.735 136.802 270.641C137.532 271.662 137.738 272.692 138.915 273.048C139.548 273.24 140.013 273.35 140.605 273.048C141.197 272.746 140.749 272.103 140.394 271.735C140.039 271.367 139.569 271.761 139.127 271.516C138.377 271.101 138.517 270.295 138.07 269.547C137.54 268.66 137.097 268.261 136.591 267.358C136.221 266.697 136.335 266.069 135.746 265.608C135.267 265.232 134.267 265.17 134.267 265.17Z" fill="#D6D6D6"/>
    <path d="M128.351 264.513C128.351 264.513 129.578 268.139 130.464 270.422C130.864 271.453 130.934 272.118 131.52 273.048C131.936 273.707 132.097 274.251 132.788 274.58C133.17 274.762 133.423 274.798 133.844 274.798C134.265 274.798 134.079 274.275 134.056 273.923C134.011 273.257 134.226 273.148 133.845 272.61C133.275 271.806 132.965 271.957 132.511 271.078C131.953 270 131.4 268.679 130.887 267.577C130.485 266.717 130.875 266.094 130.253 265.388C129.897 264.984 129.159 264.603 128.351 264.513Z" fill="#D6D6D6"/>
    <path d="M123.916 258.386C123.602 259.725 123.557 260.511 123.493 261.887C123.391 264.113 123.522 265.393 123.916 267.577C124.169 268.985 124.338 269.805 124.972 271.079C125.381 271.9 125.433 272.652 126.239 273.048C126.547 273.199 126.744 273.267 127.084 273.267C127.084 273.267 126.153 270.37 125.817 268.453C125.55 266.93 125.3 266.058 125.395 264.513C125.486 263.024 125.691 262.173 126.239 260.793C126.919 259.083 128.775 256.854 128.775 256.854L124.972 255.322C124.972 255.322 124.205 257.151 123.916 258.386Z" fill="#D6D6D6"/>
    <path d="M141.307 186.344C141.266 186.03 141.536 185.766 141.852 185.796C143.443 185.944 144.695 185.91 146.52 185.732C150.266 185.366 152.311 184.523 155.816 183.106C157.501 182.424 158.428 181.986 160.041 181.136C163.081 179.534 164.697 178.429 167.435 176.322C170.044 174.313 171.727 173.34 173.722 170.758C173.874 170.562 174.148 170.499 174.358 170.631C176.945 172.265 176.998 175.071 178.209 177.197C178.209 177.197 173.217 179.116 170.393 181.793C167.334 184.692 165.221 185.77 161.308 187.482C157.625 189.094 154.924 189.807 150.957 190.327C147.504 190.78 143.774 192.953 143.774 192.953C142.455 190.327 141.629 188.78 141.307 186.344Z" fill="url(#paint23_linear_402_5)"/>
    <path d="M208.419 284.646C208.588 283.636 208.419 282.02 208.419 282.02L223.207 285.96L222.151 289.68C222.151 289.68 227.685 295.853 228.488 300.84C228.911 303.467 227.706 309.375 224.052 309.375C217.503 309.375 214.911 306.306 211.165 301.716C207.822 297.619 204.686 294.185 206.095 289.023C206.608 287.146 208.097 286.568 208.419 284.646Z" fill="#C0C0C0"/>
    <path d="M222.151 289.679L223.207 285.959H217.925C217.925 285.959 216.914 287.926 217.08 289.242C217.295 290.936 218.269 291.755 219.615 292.743C221.021 293.775 222.425 293.038 223.841 294.056C225.143 294.992 225.46 295.999 226.376 297.339C227.275 298.654 228.488 300.84 228.488 300.84C227.685 295.852 222.151 289.679 222.151 289.679Z" fill="#9C9C9C"/>
    <path d="M208.419 284.646C208.097 286.568 206.608 287.146 206.095 289.023C204.686 294.185 207.822 297.619 211.165 301.716C214.911 306.306 217.503 309.375 224.052 309.375C224.052 309.375 219.501 308.233 217.081 306.53C214.422 304.66 213.291 303.007 211.588 300.184C210.473 298.336 209.695 297.283 209.264 295.151C208.892 293.31 208.682 292.117 209.264 290.336C209.704 288.989 210.617 288.577 211.165 287.273C211.676 286.056 212.01 283.99 212.01 283.99L208.419 282.02C208.419 282.02 208.588 283.636 208.419 284.646Z" fill="#D6D6D6"/>
    <path d="M141.535 187.701C142.802 188.139 145.566 188.339 147.62 188.139C151.366 187.773 153.578 187.148 157.083 185.732C158.769 185.05 159.696 184.612 161.308 183.762C164.348 182.16 166.387 180.836 169.125 178.729C171.847 176.633 174.997 174.352 176.054 172.164C176.477 172.601 176.931 173.888 177.407 175.665C177.407 175.665 174.316 181.085 171.492 183.762C168.433 186.661 166.32 187.74 162.408 189.452C158.725 191.064 156.023 191.776 152.056 192.297C148.603 192.75 143.183 191.421 143.183 191.421C142.76 191.421 141.745 189.014 141.535 187.701Z" fill="url(#paint24_linear_402_5)"/>
    <path d="M225.319 168.006C225.319 168.006 226.771 167.878 227.643 167.568C228.621 167.221 229.134 166.889 229.967 166.255C230.907 165.54 231.248 164.914 232.08 164.067C234.577 161.523 238.629 157.721 238.629 157.721C238.629 157.721 239.414 157.358 239.896 157.502C240.292 157.62 240.481 157.827 240.741 158.158C240.974 158.455 241.091 158.659 241.164 159.034C241.263 159.543 241.071 159.842 240.952 160.347C240.416 162.627 237.784 165.282 238.206 165.599L238.629 165.818C239.051 165.818 241.074 163.731 242.854 162.754C243.734 162.27 244.212 161.916 245.178 161.66C246.06 161.425 246.734 160.931 247.501 161.441C248.002 161.774 248.19 162.159 248.346 162.754C248.477 163.249 248.403 163.557 248.346 164.067C248.031 166.889 242.832 168.225 243.276 169.1C243.415 169.373 243.433 169.619 243.699 169.757C244.121 169.975 245.778 169.784 247.079 169.538C248.799 169.213 249.562 168.156 251.304 168.006C251.88 167.956 252.236 167.813 252.783 168.006C253.393 168.221 253.919 168.447 254.05 169.1C254.157 169.629 253.872 169.935 253.628 170.413C253.191 171.268 252.675 171.57 251.938 172.164C250.773 173.102 249.925 173.339 248.558 173.915C246.573 174.75 245.153 174.376 243.276 175.446C242.394 175.949 241.164 175.935 241.164 176.978C241.164 178.51 245.382 179.171 245.811 181.793C245.936 182.551 246.245 183.138 245.811 183.762C245.399 184.355 244.817 184.299 244.121 184.419C242.397 184.714 241.575 183.39 239.896 182.887C238.108 182.351 237.099 182 235.248 181.793C233.526 181.6 230.812 181.793 230.812 181.793L230.178 171.288L225.319 168.006Z" fill="#C0C0C0"/>
    <path d="M251.304 168.006C249.561 168.156 248.798 169.213 247.079 169.538C246.656 169.757 246.655 169.758 246.445 169.975L246.445 169.975C246.234 170.193 245.964 170.33 246.022 170.632C246.081 170.934 246.376 170.966 246.656 171.07C247.297 171.307 247.711 170.884 248.346 170.632C248.863 170.427 249.086 170.149 249.614 169.975C250.092 169.818 250.385 169.833 250.881 169.757C251.539 169.655 251.92 169.678 252.571 169.538C253.159 169.411 254.181 169.753 254.05 169.1C253.918 168.447 253.393 168.221 252.782 168.006C252.236 167.813 251.879 167.956 251.304 168.006Z" fill="#D6D6D6"/>
    <path d="M242.854 162.754C241.163 163.848 240.107 164.723 240.107 164.723C240.107 164.723 239.64 165.127 239.896 165.599C240.229 166.213 240.937 166.245 241.586 166.036C242.092 165.804 242.352 165.622 242.854 165.38C243.424 165.105 243.793 165.056 244.333 164.723C245.087 164.26 245.281 163.676 246.023 163.192C246.491 162.886 246.984 163.013 247.29 162.535C247.523 162.172 248.269 161.951 247.502 161.441C246.735 160.931 246.061 161.425 245.178 161.66C244.212 161.916 243.699 162.207 242.854 162.754Z" fill="#D6D6D6"/>
    <path d="M227.643 167.568C226.771 167.878 226.102 167.5 225.319 168.006C223.398 169.249 227.944 171.676 230.178 171.288C231.42 171.073 231.779 170.079 232.925 169.538C233.566 169.235 234.045 169.311 234.615 168.881C235.136 168.488 235.457 168.198 235.671 167.568C236.01 166.571 234.881 165.987 235.037 164.942C235.227 163.675 236.204 163.348 236.939 162.316C237.605 161.381 237.85 160.746 238.629 159.909C239.361 159.121 241.001 158.49 240.741 158.158C240.481 157.827 240.293 157.62 239.896 157.502C239.414 157.358 238.629 157.721 238.629 157.721C238.629 157.721 234.577 161.523 232.08 164.067C231.248 164.914 230.907 165.54 229.967 166.255C229.134 166.889 228.621 167.221 227.643 167.568Z" fill="#D6D6D6"/>
    <path d="M183.654 310.385C184.381 309.325 185.586 307.726 185.586 307.726L193.315 309.055L198.278 307.186L201.688 299.527C201.688 299.527 202.511 301.674 202.976 303.072C203.432 304.444 203.836 305.184 204.049 306.618C204.474 309.472 203.914 311.209 202.976 313.93C201.587 317.958 199.65 319.74 196.75 322.793C193.944 325.747 188.592 329.219 188.592 329.219C188.592 329.219 182.747 332.127 180.005 330.105C178.529 329.017 177.956 327.908 177.428 326.117C176.528 323.064 178.024 321.113 179.146 318.14C180.388 314.849 181.678 313.268 183.654 310.385Z" fill="#C0C0C0"/>
    <path d="M202.976 303.072C202.511 301.674 201.687 299.527 201.687 299.527C201.687 299.527 197.153 304.106 198.278 307.186C198.877 308.827 200.657 308.821 201.236 310.469C202.119 312.985 200.545 314.669 199.335 317.034C198.369 318.922 197.546 319.824 196.166 321.411C194.602 323.209 193.897 323.994 192.363 325.569C190.931 327.038 188.592 329.219 188.592 329.219C188.592 329.219 193.944 325.746 196.75 322.793C199.65 319.74 201.587 317.958 202.976 313.93C203.914 311.209 204.474 309.472 204.049 306.618C203.836 305.184 203.432 304.444 202.976 303.072Z" fill="#9C9C9C"/>
    <path d="M183.655 310.385C181.678 313.268 180.388 314.849 179.146 318.14C178.024 321.114 176.53 323.064 177.429 326.117C177.957 327.909 178.843 329.508 180.005 330.105C179.9 329.42 179.687 329.781 179.477 328.414C179.267 327.047 178.979 325.743 179.146 324.037C179.348 321.979 179.904 320.881 180.744 319.004C181.646 316.992 182.106 315.722 183.655 314.189C184.342 313.509 184.804 313.215 185.587 312.658C188.314 310.716 193.84 311.78 193.315 309.055C192.717 305.947 185.587 307.726 185.587 307.726C185.587 307.726 184.381 309.325 183.655 310.385Z" fill="#D6D6D6"/>
    <path d="M142.144 189.816C147.426 189.816 148.802 189.867 152.858 189.014C156.949 188.154 159.242 187.399 162.998 185.513C166.437 183.786 168.328 182.609 171.237 180.042C173.726 177.846 175.674 175.665 176.941 173.696C177.786 174.79 177.744 175.289 178.631 175.884C178.941 176.092 179.126 176.203 179.476 176.322C180.991 176.835 181.732 175.187 183.279 174.79C185.208 174.295 186.368 174.506 188.349 174.352C192.634 174.018 195.049 174.02 199.335 173.696C203.134 173.408 205.297 173.482 209.052 172.82C215.098 171.755 217.927 168.324 224.052 168.006C225.288 167.942 226.013 167.728 227.221 168.006C229.902 168.624 230.873 170.528 232.502 172.82C233.662 174.452 234.514 175.416 234.826 177.416C235.189 179.749 235.079 181.562 233.558 183.324C231.851 185.303 229.588 184.061 227.221 185.075C224.553 186.218 223.646 188.151 220.883 189.014C219.051 189.586 217.877 189.175 216.024 189.671C212.701 190.559 211.396 192.515 208.207 193.829C205.953 194.758 204.677 195.336 202.292 195.798C200.582 196.13 199.593 196.124 197.856 196.236C194.562 196.448 194.264 195.36 190.25 196.236C190.25 197.33 190.273 197.726 190.884 198.643C192.216 200.642 193.245 201.542 194.687 203.457C199.893 210.374 200.554 216.051 206.517 222.277C207.252 223.045 207.862 223.297 208.445 224.192C209.253 225.433 208.776 226.579 209.528 227.858C210.758 229.953 212.418 230.285 214.505 231.441C216.054 232.299 217.139 232.327 218.638 233.274C220.429 234.406 221.185 235.414 222.678 236.94C223.915 238.203 224.457 239.063 225.689 240.332C227.42 242.114 228.905 242.592 230.389 244.599C231.691 246.359 232.304 247.51 232.924 249.632C233.432 251.367 233.651 252.417 233.558 254.228C233.448 256.361 232.649 257.426 232.079 259.48C230.802 264.083 230.485 266.794 228.911 271.297C227.339 275.793 225.373 277.877 224.052 282.458C223.422 284.643 224.334 286.528 222.784 288.148C221.388 289.607 219.908 289.641 217.925 289.679C215.965 289.717 214.818 289.281 213.066 288.366C211.85 287.732 211.142 287.32 210.214 286.287C209.095 285.042 207.558 284.147 207.362 282.458C206.729 276.987 207.687 275.105 208.841 270.641C209.412 268.433 210.752 267.453 210.848 265.17C210.926 263.336 210.668 262.227 209.897 260.574C205.883 258.167 203.56 258.167 195.954 256.635C195.532 256.635 194.264 256.635 193.419 260.793C192.997 263.638 193.748 266.429 194.687 270.203C195.556 273.695 195.8 275.72 196.799 279.175C198.141 283.813 199.456 286.213 201.025 290.774C201.786 292.989 202.609 294.135 202.926 296.463C203.156 298.156 203.197 299.154 202.926 300.84C202.441 303.856 201.747 305.735 199.968 308.281C199.044 309.603 198.622 310.594 197.222 311.344C195.676 312.173 194.526 311.745 192.786 311.782C191.134 311.817 190.184 311.883 188.56 311.563C187.202 311.296 186.322 311.278 185.18 310.469C184.117 309.715 183.832 308.918 183.068 307.843C180.684 304.487 179.79 302.128 178.209 298.214C176.183 293.2 175.543 290.171 174.406 284.865C173.933 282.656 173.822 281.384 173.35 279.175C172.423 274.843 172.843 273.893 170.815 269.984C169.639 267.718 167.666 265.24 166.695 262.872C165.76 260.588 166.168 258.861 165.111 256.635C163.746 253.761 163.843 256.635 160.674 250.07C157.833 244.182 154.336 241.754 152.647 235.408C152.354 234.309 152.24 233.678 152.013 232.563C151.735 231.202 151.64 230.426 151.379 229.061C150.656 225.279 150.323 220.964 149.267 219.433C148.856 219.388 148.622 219.411 148.21 219.433C144.83 219.611 147.633 232.537 144.408 240.003C143.805 241.399 143.113 242.032 142.718 243.505C142.166 245.563 143.152 246.887 142.718 248.976C142.236 251.293 141.692 252.666 140.183 254.447C138.854 256.015 137.872 256.863 135.957 257.51C133.918 258.199 132.6 257.725 130.465 257.51C128.629 257.326 127.411 257.597 125.817 256.635C124.455 255.813 123.674 255.08 123.071 253.571C122.408 251.913 123.257 250.76 123.071 248.976C122.898 247.326 122.48 246.456 122.226 244.818C122.001 243.373 121.612 242.547 121.803 241.098C121.944 240.026 122.405 239.523 122.648 238.471C123.016 236.884 123.036 235.946 123.071 234.314C123.114 232.256 122.55 231.117 122.648 229.061C122.71 227.77 122.909 227.061 123.071 225.779C123.511 222.279 123.17 220.195 124.127 216.807C124.471 215.587 124.654 214.889 125.183 213.743C125.726 212.566 126.175 211.983 126.873 210.898C127.725 209.575 128.357 208.946 129.197 207.615C131.015 204.737 131.244 202.657 133 199.737C133.847 198.329 134.282 197.496 135.324 196.236C137.117 194.067 138.14 192.325 140.816 191.64C141.303 191.516 141.714 191.773 142.084 191.421C142.514 191.013 141.986 190.397 142.144 189.816Z" fill="url(#paint25_linear_402_5)"/>
    <path d="M208.446 224.192C207.863 223.297 207.253 223.045 206.518 222.278C200.556 216.051 199.894 210.374 194.688 203.458C193.246 201.542 192.218 200.642 190.885 198.643C190.274 197.726 190.252 196.236 190.252 196.236C190.252 196.236 188.137 195.768 187.082 194.923C184.724 193.033 185.603 187.263 185.181 187.264C180.688 187.264 185.843 194.505 186.66 199.081C187.152 201.833 187.351 203.406 188.139 206.084C189.55 210.874 190.785 213.484 193.42 217.682C196.446 222.501 198.074 225.835 202.927 228.624C206.989 230.958 216.594 232.597 214.507 231.441C212.419 230.285 210.76 229.953 209.529 227.858C208.778 226.579 209.255 225.433 208.446 224.192Z" fill="url(#paint26_linear_402_5)"/>
    <path d="M190.25 196.236C194.264 195.361 194.562 196.448 197.856 196.236C201.149 196.023 194.275 195.369 192.363 194.047C190.955 193.074 190.319 192.295 189.194 190.984C187.977 189.565 185.18 187.264 185.18 187.264C185.18 187.264 185.094 189.713 185.392 190.984C185.737 192.455 185.587 193.592 186.659 194.704C187.677 195.76 190.25 196.236 190.25 196.236Z" fill="url(#paint27_linear_402_5)"/>
    <path d="M195.955 256.635C203.56 258.167 205.884 258.167 209.898 260.574C210.669 262.227 210.926 263.336 210.848 265.17C210.752 267.453 209.412 268.433 208.842 270.641C207.687 275.105 206.729 276.987 207.363 282.458C207.558 284.148 209.096 285.042 210.215 286.288C211.334 287.533 211.773 285.396 211.799 284.427C211.826 283.427 210.693 283.328 210.215 282.458C209.224 280.657 209.338 279.274 209.475 277.206C209.656 274.482 210.962 273.23 211.799 270.641C212.81 267.513 214.655 265.796 214.123 262.544C213.69 259.899 212.698 258.394 210.743 256.635C208.32 254.456 206.133 253.892 202.926 254.009C200.031 254.115 196.588 255.103 195.955 256.635Z" fill="#B26F34"/>
    <path d="M164.042 205.646L164.887 204.99C164.887 204.99 165.18 208.457 165.099 210.679C165.017 212.914 165.077 214.224 164.465 216.369C163.658 219.195 161.994 220.225 160.873 222.934C160.185 224.599 159.395 227.311 159.395 227.311C159.395 227.311 158.073 221.535 158.761 219.87C159.881 217.162 161.546 216.131 162.352 213.305C162.964 211.16 162.904 209.851 162.986 207.616C164.042 205.646 164.042 205.646 164.042 205.646Z" fill="#D18643"/>
    <path d="M142.084 191.421C141.714 191.773 141.303 191.516 140.816 191.64C138.14 192.326 137.117 194.067 135.324 196.236C134.282 197.496 133.847 198.329 133 199.737C131.244 202.657 131.015 204.737 129.197 207.615C128.357 208.946 127.725 209.575 126.873 210.898C126.175 211.983 125.726 212.566 125.183 213.743C124.654 214.889 124.471 215.587 124.127 216.807C123.17 220.195 123.511 222.279 123.071 225.779C122.909 227.061 122.71 227.77 122.648 229.061C122.55 231.117 123.114 232.256 123.071 234.314C123.036 235.946 123.016 236.884 122.648 238.471C122.405 239.523 121.944 240.026 121.803 241.098C121.612 242.547 122.001 243.373 122.226 244.818C122.48 246.456 122.898 247.326 123.071 248.976C123.257 250.76 122.408 251.913 123.071 253.571C123.674 255.08 124.455 255.813 125.817 256.635C127.411 257.597 128.629 257.326 130.465 257.51C132.301 257.695 130.766 248.802 131.521 243.286C132.47 236.347 133.48 232.521 135.324 225.779C137.13 219.174 138.267 215.484 140.816 209.147C143.697 201.986 156.392 194.404 149.478 191.421H142.084Z" fill="#E5A064"/>
    <path d="M188.561 311.563C190.184 311.882 192.786 311.782 192.786 311.782C196.988 310.288 190.111 305.153 188.561 300.84C187.158 296.939 186.337 294.76 185.18 290.774C184.248 287.557 184.553 285.443 183.068 282.458C181.881 280.072 180.268 279.357 179.054 276.987C176.923 272.827 177.15 269.859 176.73 265.17C176.372 261.17 176.73 258.901 176.73 254.884C176.73 251.722 176.994 249.937 176.73 246.787C176.506 244.114 177.385 242.018 175.674 240.003C174.307 238.394 172.881 224.194 170.815 224.075C168.443 223.939 167.023 224.804 165.111 226.263C161.753 228.827 157.506 243.505 160.675 250.07C163.843 256.635 163.746 253.761 165.111 256.635C166.168 258.861 165.76 260.588 166.695 262.872C167.666 265.24 169.639 267.718 170.815 269.984C172.843 273.892 172.423 274.843 173.35 279.175C173.823 281.384 173.933 282.656 174.406 284.865L174.439 285.019C175.556 290.23 176.203 293.249 178.209 298.214C179.79 302.128 180.609 304.449 183.068 307.843C183.842 308.911 184.117 309.715 185.18 310.469C186.322 311.278 187.202 311.296 188.561 311.563Z" fill="#E5A064"/>
    <path d="M166.118 190.557L166.836 190.097C166.836 190.097 170.626 195.088 172.754 198.499C176.726 204.868 177.671 209.19 181.205 215.83C183.118 219.425 184.368 221.336 186.276 224.934C189.075 230.213 191.375 232.904 193.036 238.676C194.528 243.861 194.727 252.419 194.727 252.419L194.008 252.879C194.008 252.879 193.809 244.321 192.317 239.136C190.656 233.364 188.356 230.673 185.557 225.394C183.649 221.796 182.399 219.885 180.486 216.29C176.952 209.65 176.007 205.328 172.035 198.959C169.907 195.548 166.118 190.557 166.118 190.557Z" fill="url(#paint28_linear_402_5)"/>
    <path d="M178.209 175.665C178.209 175.665 178.846 176.082 179.265 176.234C180.11 176.541 180.077 176.408 180.533 176.322C181.378 176.103 181.751 175.377 182.645 175.009C183.203 174.778 183.536 174.698 184.124 174.571C185.177 174.343 185.797 174.424 186.87 174.352C188.848 174.22 189.961 174.225 191.941 174.133C193.673 174.053 194.645 174.018 196.377 173.914C198.689 173.776 199.981 173.629 202.292 173.477C203.694 173.384 205.884 173.258 205.884 173.258C206.268 173.671 206.351 174.024 206.517 174.571C207.185 176.766 205.993 178.433 204.405 180.042C202.614 181.856 200.767 181.714 198.278 182.011C195.056 182.396 193.266 181.26 190.039 180.917C184.203 180.297 175.04 180.042 175.04 180.042L176.941 177.853L178.209 175.665Z" fill="#E49046"/>
    <path d="M142.295 190.984C142.295 190.984 155.301 191.726 162.892 188.577C170.199 185.545 178.335 175.665 178.335 175.665C178.524 175.819 178.635 175.899 178.842 176.029C178.842 176.029 170.607 186.069 163.421 189.233C155.632 192.663 142.084 191.422 142.084 191.422C142.234 191.276 142.265 191.178 142.295 190.984Z" fill="url(#paint29_linear_402_5)"/>
    <path d="M142.295 190.984C142.295 190.984 155.301 191.726 162.892 188.577C170.199 185.545 178.335 175.665 178.335 175.665C178.524 175.819 178.635 175.899 178.842 176.029C178.842 176.029 170.607 186.069 163.421 189.233C155.632 192.663 142.084 191.422 142.084 191.422C142.234 191.276 142.265 191.178 142.295 190.984Z" fill="url(#paint30_linear_402_5)"/>
    <path d="M147.577 204.99H147.999C147.999 204.99 149.844 209.697 149.901 212.868C149.947 215.456 148.844 219.407 148.844 219.407C148.435 219.421 148.602 219.42 148.422 219.42C148.422 219.42 149.558 215.326 149.478 212.649C149.386 209.562 147.577 204.99 147.577 204.99Z" fill="url(#paint31_linear_402_5)"/>
    <path d="M115.672 149.448C116.258 146.583 116.94 145.009 118.383 142.445C119.743 140.028 120.773 138.799 122.676 136.755C125.361 133.87 127.175 132.456 130.583 130.409C133.873 128.434 135.937 127.617 139.621 126.47C143.641 125.218 146.021 124.664 150.24 124.5C153.601 124.37 155.527 124.522 158.826 125.157C160.799 125.537 161.942 125.714 163.796 126.47C165.582 127.197 166.543 127.746 168.089 128.877C172.034 131.763 173.114 134.657 175.319 138.943C176.467 141.173 176.973 142.494 177.804 144.852C178.662 147.285 179.193 148.66 179.612 151.198C180.211 154.827 180.6 157.06 179.612 160.608C178.81 163.487 177.775 164.958 175.997 167.392C174.41 169.565 173.348 170.704 171.252 172.426C168.655 174.558 166.791 175.234 163.796 176.802C160.116 178.73 158.064 179.937 154.081 181.179C148.32 182.975 144.623 184.429 138.717 183.149C135.631 182.48 133.941 181.712 131.261 180.085C129.136 178.794 128.091 177.838 126.291 176.146C122.478 172.562 120.527 170.131 118.383 165.423C115.748 159.638 114.401 155.649 115.672 149.448Z" fill="url(#paint32_linear_402_5)"/>
    <path d="M119.443 162.578L129.794 180.085C129.794 180.085 126.679 180.244 124.935 179.428C122.967 178.507 122.188 177.301 120.921 175.489C119.687 173.724 119.122 172.566 118.597 170.456C117.918 167.725 119.443 162.578 119.443 162.578Z" fill="#B7B6B2"/>
    <path d="M173.35 140.433C173.35 140.433 177.65 141.991 178.806 142.883C179.79 143.641 180.239 144.232 180.919 145.29C181.989 146.955 182.327 148.125 182.609 150.104C182.813 151.542 182.813 152.387 182.609 153.824C182.327 155.804 178.806 161.879 178.806 161.879L173.35 140.433Z" fill="#B7B7C3"/>
    <g filter="url(#filter1_f_402_5)">
    <path d="M177.539 144.883L178.477 144.196C178.477 144.196 179.396 145.702 179.885 146.717C180.552 148.102 180.857 148.916 181.293 150.386C181.503 151.095 181.869 151.489 181.762 152.22C181.658 152.934 180.824 153.824 180.824 153.824C180.824 153.824 180.347 151.562 179.885 150.156C179.183 148.018 177.539 144.883 177.539 144.883Z" fill="#62635E" fill-opacity="0.5"/>
    </g>
    <path d="M119.02 152.949C119.569 150.084 120.206 148.511 121.555 145.946C122.827 143.53 123.79 142.3 125.569 140.256C128.08 137.371 129.776 135.957 132.963 133.91C136.039 131.935 137.968 131.119 141.413 129.971C145.172 128.719 147.398 128.165 151.343 128.002C154.485 127.871 156.286 128.023 159.37 128.658C161.216 129.038 162.284 129.216 164.018 129.971C165.688 130.698 166.587 131.247 168.032 132.378C171.721 135.265 172.73 138.159 174.792 142.445C175.865 144.675 176.339 145.995 177.116 148.353C177.918 150.787 178.414 152.161 178.806 154.7C179.366 158.328 179.73 160.562 178.806 164.11C178.056 166.988 177.088 168.46 175.426 170.894C173.942 173.067 172.949 174.206 170.989 175.927C168.561 178.059 166.818 178.735 164.018 180.304C160.576 182.232 158.658 183.439 154.934 184.68C149.547 186.476 146.091 187.93 140.568 186.65C137.682 185.981 136.103 185.214 133.597 183.586C131.61 182.296 130.632 181.339 128.949 179.647C125.384 176.063 123.56 173.633 121.555 168.924C119.092 163.14 117.833 159.151 119.02 152.949Z" fill="url(#paint33_linear_402_5)"/>
    <path d="M127.048 156.888C128.949 153.606 129.698 152.48 131.907 150.104C134.437 147.383 136.179 146.148 139.301 144.195C142.335 142.298 144.21 141.511 147.54 140.256C152.188 138.506 154.512 138.068 158.314 138.068C161.002 138.068 162.802 139.801 164.441 142.007C166.553 144.852 167.032 145.504 168.666 148.791C169.971 151.415 171.412 155.794 171.412 155.794C171.412 155.794 172.404 159.514 171.412 161.484C168.877 166.517 164.378 170.545 158.314 174.176C151.986 177.966 150.075 179.428 140.357 178.991C135.71 177.897 128.605 170.804 127.048 162.359C126.722 160.588 126.153 158.434 127.048 156.888Z" fill="url(#paint34_linear_402_5)"/>
    <path d="M136.132 146.165C139.192 143.803 141.286 142.691 144.794 141.132C148.2 139.618 150.2 138.758 153.878 138.287C155.19 138.119 157.258 138.068 157.258 138.068C157.258 138.068 149.399 146.59 146.695 153.387C143.712 160.885 143.949 173.958 143.949 173.958L135.076 174.833C135.076 174.833 127.216 160.858 128.527 155.138C128.949 153.294 130.147 151.882 131.696 150.104C133.219 148.357 134.309 147.572 136.132 146.165Z" fill="url(#paint35_linear_402_5)"/>
    <path fill-rule="evenodd" clip-rule="evenodd" d="M131.261 149.743C128.969 152.22 128.193 153.394 126.221 156.816C125.395 158.25 125.77 160.185 126.102 161.894C126.143 162.107 126.183 162.316 126.221 162.521C127.836 171.327 135.205 178.722 140.027 179.863C149.627 180.297 151.882 178.935 157.746 175.39L158.654 174.843C164.944 171.056 169.611 166.856 172.24 161.608C173.27 159.554 172.24 155.675 172.24 155.675C172.24 155.675 170.745 151.11 169.392 148.373C167.696 144.946 167.2 144.266 165.009 141.3C163.309 138.999 161.441 137.193 158.654 137.193C154.709 137.193 152.298 137.649 147.477 139.474C144.023 140.782 142.078 141.603 138.931 143.582C135.692 145.617 133.885 146.906 131.261 149.743ZM131.907 150.104C129.697 152.48 128.949 153.605 127.048 156.888C126.252 158.262 126.613 160.118 126.933 161.757C126.972 161.961 127.011 162.163 127.048 162.359C128.605 170.804 135.709 177.896 140.357 178.991C149.612 179.407 151.786 178.1 157.439 174.701C157.722 174.531 158.013 174.356 158.314 174.176C164.378 170.545 168.877 166.517 171.412 161.484C172.404 159.514 171.412 155.794 171.412 155.794C171.412 155.794 169.97 151.415 168.665 148.791C167.031 145.504 166.553 144.852 164.44 142.007C162.802 139.8 161.001 138.068 158.314 138.068C154.511 138.068 152.187 138.506 147.54 140.256C144.209 141.511 142.335 142.298 139.301 144.195C136.179 146.148 134.437 147.383 131.907 150.104Z" fill="url(#paint36_linear_402_5)"/>
    <path d="M222.546 261.026C224.324 259.291 226.309 255.76 226.309 255.76C226.309 255.76 225.891 257.129 225.557 257.977C224.785 259.935 224.088 260.848 222.546 262.135C221.011 263.418 218.282 264.076 218.282 264.076C218.282 264.076 221.06 262.478 222.546 261.026Z" fill="#AC7341"/>
    <g filter="url(#filter2_d_402_5)">
    <path d="M333.824 406.89V373.456H263.967L257.114 355.365L307.296 236.972H346.204L302.432 339.793H333.824V310.939L341.119 290.1H372.069V339.793H386.88V367.273L372.069 373.456V406.89H333.824Z" fill="#3E404E"/>
    </g>
    <defs>
    <filter id="filter0_d_402_5" x="93.8719" y="236.484" width="184.906" height="183.799" filterUnits="userSpaceOnUse" color-interpolation-filters="sRGB">
    <feFlood flood-opacity="0" result="BackgroundImageFix"/>
    <feColorMatrix in="SourceAlpha" type="matrix" values="0 0 0 0 0 0 0 0 0 0 0 0 0 0 0 0 0 0 127 0" result="hardAlpha"/>
    <feOffset dx="-7"/>
    <feGaussianBlur stdDeviation="2"/>
    <feColorMatrix type="matrix" values="0 0 0 0 0 0 0 0 0 0 0 0 0 0 0 0 0 0 0.4 0"/>
    <feBlend mode="normal" in2="BackgroundImageFix" result="effect1_dropShadow_402_5"/>
    <feBlend mode="normal" in="SourceGraphic" in2="effect1_dropShadow_402_5" result="shape"/>
    </filter>
    <filter id="filter1_f_402_5" x="173.539" y="140.196" width="12.2423" height="17.6289" filterUnits="userSpaceOnUse" color-interpolation-filters="sRGB">
    <feFlood flood-opacity="0" result="BackgroundImageFix"/>
    <feBlend mode="normal" in="SourceGraphic" in2="BackgroundImageFix" result="shape"/>
    <feGaussianBlur stdDeviation="2" result="effect1_foregroundBlur_402_5"/>
    </filter>
    <filter id="filter2_d_402_5" x="246.114" y="232.972" width="140.766" height="177.918" filterUnits="userSpaceOnUse" color-interpolation-filters="sRGB">
    <feFlood flood-opacity="0" result="BackgroundImageFix"/>
    <feColorMatrix in="SourceAlpha" type="matrix" values="0 0 0 0 0 0 0 0 0 0 0 0 0 0 0 0 0 0 127 0" result="hardAlpha"/>
    <feOffset dx="-7"/>
    <feGaussianBlur stdDeviation="2"/>
    <feColorMatrix type="matrix" values="0 0 0 0 0 0 0 0 0 0 0 0 0 0 0 0 0 0 0.4 0"/>
    <feBlend mode="normal" in2="BackgroundImageFix" result="effect1_dropShadow_402_5"/>
    <feBlend mode="normal" in="SourceGraphic" in2="effect1_dropShadow_402_5" result="shape"/>
    </filter>
    <linearGradient id="paint0_linear_402_5" x1="459.084" y1="105.694" x2="492.786" y2="75.3656" gradientUnits="userSpaceOnUse">
    <stop stop-color="#F67C01"/>
    <stop offset="1" stop-color="#BB5E00"/>
    </linearGradient>
    <linearGradient id="paint1_linear_402_5" x1="513.551" y1="23.5468" x2="546.075" y2="56.6362" gradientUnits="userSpaceOnUse">
    <stop offset="0.213542" stop-color="#D2CECE"/>
    <stop offset="1" stop-color="#393535"/>
    </linearGradient>
    <linearGradient id="paint2_linear_402_5" x1="513.551" y1="23.5468" x2="546.075" y2="56.6362" gradientUnits="userSpaceOnUse">
    <stop offset="0.213542" stop-color="#D2CECE"/>
    <stop offset="1" stop-color="#393535"/>
    </linearGradient>
    <linearGradient id="paint3_linear_402_5" x1="502.062" y1="79.5676" x2="517.646" y2="95.4229" gradientUnits="userSpaceOnUse">
    <stop stop-color="#404040"/>
    <stop offset="1"/>
    </linearGradient>
    <linearGradient id="paint4_linear_402_5" x1="488.342" y1="64.5899" x2="471.402" y2="47.3558" gradientUnits="userSpaceOnUse">
    <stop/>
    <stop offset="1" stop-color="#7A7A7A"/>
    </linearGradient>
    <linearGradient id="paint5_linear_402_5" x1="547.695" y1="0.829302" x2="568.7" y2="22.1996" gradientUnits="userSpaceOnUse">
    <stop stop-color="#8C8B8B"/>
    <stop offset="1"/>
    </linearGradient>
    <linearGradient id="paint6_linear_402_5" x1="477.678" y1="61.5182" x2="506.136" y2="90.4715" gradientUnits="userSpaceOnUse">
    <stop offset="0.1875" stop-color="white"/>
    <stop offset="1" stop-color="#393535"/>
    </linearGradient>
    <linearGradient id="paint7_linear_402_5" x1="541.674" y1="-0.0298695" x2="570.133" y2="28.9234" gradientUnits="userSpaceOnUse">
    <stop offset="0.135417" stop-color="white"/>
    <stop offset="1" stop-color="#393535"/>
    </linearGradient>
    <linearGradient id="paint8_linear_402_5" x1="542.136" y1="34.756" x2="533.328" y2="25.7943" gradientUnits="userSpaceOnUse">
    <stop offset="0.0885417" stop-color="#212121"/>
    <stop offset="1" stop-color="#606060"/>
    </linearGradient>
    <linearGradient id="paint9_linear_402_5" x1="159.927" y1="247.871" x2="232.041" y2="407.028" gradientUnits="userSpaceOnUse">
    <stop stop-color="#C50D15"/>
    <stop offset="1" stop-color="#280001"/>
    </linearGradient>
    <linearGradient id="paint10_linear_402_5" x1="142.967" y1="295.724" x2="154.064" y2="320.208" gradientUnits="userSpaceOnUse">
    <stop stop-color="#1F0406"/>
    <stop offset="1" stop-color="#A8111A"/>
    </linearGradient>
    <linearGradient id="paint11_linear_402_5" x1="233.156" y1="265.499" x2="237.914" y2="273.463" gradientUnits="userSpaceOnUse">
    <stop stop-color="#190306"/>
    <stop offset="1" stop-color="#E0131F"/>
    </linearGradient>
    <linearGradient id="paint12_linear_402_5" x1="262.908" y1="335.068" x2="272.328" y2="338.235" gradientUnits="userSpaceOnUse">
    <stop stop-color="#2E0508"/>
    <stop offset="1" stop-color="#7D060D"/>
    </linearGradient>
    <linearGradient id="paint13_linear_402_5" x1="184.339" y1="241.758" x2="184.986" y2="247.216" gradientUnits="userSpaceOnUse">
    <stop stop-color="#420609"/>
    <stop offset="1" stop-color="#DF131E"/>
    </linearGradient>
    <linearGradient id="paint14_linear_402_5" x1="199.597" y1="365.126" x2="206.662" y2="400.638" gradientUnits="userSpaceOnUse">
    <stop stop-color="#150305"/>
    <stop offset="1" stop-color="#70090F"/>
    </linearGradient>
    <linearGradient id="paint15_linear_402_5" x1="115.57" y1="372.327" x2="106.858" y2="340.37" gradientUnits="userSpaceOnUse">
    <stop stop-color="#6F060A"/>
    <stop offset="1" stop-color="#8C080E"/>
    </linearGradient>
    <linearGradient id="paint16_linear_402_5" x1="118.411" y1="371.431" x2="109.169" y2="339.616" gradientUnits="userSpaceOnUse">
    <stop stop-color="#6F060A"/>
    <stop offset="1" stop-color="#8C080E"/>
    </linearGradient>
    <linearGradient id="paint17_linear_402_5" x1="210.192" y1="413.165" x2="177.642" y2="414.761" gradientUnits="userSpaceOnUse">
    <stop stop-color="#2A0001"/>
    <stop offset="1" stop-color="#360103"/>
    </linearGradient>
    <linearGradient id="paint18_linear_402_5" x1="210.33" y1="411.141" x2="177.669" y2="411.134" gradientUnits="userSpaceOnUse">
    <stop stop-color="#2A0001"/>
    <stop offset="1" stop-color="#360103"/>
    </linearGradient>
    <linearGradient id="paint19_linear_402_5" x1="265.66" y1="377.397" x2="277.756" y2="352.374" gradientUnits="userSpaceOnUse">
    <stop stop-color="#380103"/>
    <stop offset="1" stop-color="#470205"/>
    </linearGradient>
    <linearGradient id="paint20_linear_402_5" x1="263.276" y1="376.273" x2="275.274" y2="351.199" gradientUnits="userSpaceOnUse">
    <stop stop-color="#380103"/>
    <stop offset="1" stop-color="#470205"/>
    </linearGradient>
    <linearGradient id="paint21_linear_402_5" x1="255.872" y1="264.171" x2="267.797" y2="278.973" gradientUnits="userSpaceOnUse">
    <stop stop-color="#92090E"/>
    <stop offset="1" stop-color="#82070C"/>
    </linearGradient>
    <linearGradient id="paint22_linear_402_5" x1="254.568" y1="265.092" x2="266.121" y2="280.239" gradientUnits="userSpaceOnUse">
    <stop stop-color="#92090E"/>
    <stop offset="1" stop-color="#82070C"/>
    </linearGradient>
    <linearGradient id="paint23_linear_402_5" x1="169.759" y1="173.039" x2="140.783" y2="188.372" gradientUnits="userSpaceOnUse">
    <stop stop-color="#778186"/>
    <stop offset="1" stop-color="#474B4C"/>
    </linearGradient>
    <linearGradient id="paint24_linear_402_5" x1="170.181" y1="174.352" x2="142.291" y2="188.85" gradientUnits="userSpaceOnUse">
    <stop stop-color="#C1C1C1"/>
    <stop offset="1" stop-color="#929292"/>
    </linearGradient>
    <linearGradient id="paint25_linear_402_5" x1="198.701" y1="173.258" x2="171.113" y2="315.808" gradientUnits="userSpaceOnUse">
    <stop stop-color="#D4853F"/>
    <stop offset="1" stop-color="#D79962"/>
    </linearGradient>
    <linearGradient id="paint26_linear_402_5" x1="198.701" y1="173.258" x2="171.113" y2="315.807" gradientUnits="userSpaceOnUse">
    <stop stop-color="#A25D21"/>
    <stop offset="1" stop-color="#D79962"/>
    </linearGradient>
    <linearGradient id="paint27_linear_402_5" x1="198.701" y1="173.258" x2="171.113" y2="315.808" gradientUnits="userSpaceOnUse">
    <stop stop-color="#995316"/>
    <stop offset="1" stop-color="#D79962"/>
    </linearGradient>
    <linearGradient id="paint28_linear_402_5" x1="177.998" y1="216.15" x2="181.853" y2="214.289" gradientUnits="userSpaceOnUse">
    <stop stop-color="#6A4222"/>
    <stop offset="1" stop-color="#D58947"/>
    </linearGradient>
    <linearGradient id="paint29_linear_402_5" x1="156.872" y1="187.045" x2="158.223" y2="191.175" gradientUnits="userSpaceOnUse">
    <stop stop-color="#D48845"/>
    <stop offset="1" stop-color="#4E3219"/>
    </linearGradient>
    <linearGradient id="paint30_linear_402_5" x1="175.674" y1="177.635" x2="178.421" y2="177.431" gradientUnits="userSpaceOnUse">
    <stop stop-color="#D48641" stop-opacity="0"/>
    <stop offset="1" stop-color="#4E3219"/>
    </linearGradient>
    <linearGradient id="paint31_linear_402_5" x1="147.788" y1="205.646" x2="149.301" y2="219.452" gradientUnits="userSpaceOnUse">
    <stop stop-color="#D58A49"/>
    <stop offset="1" stop-color="#281709"/>
    </linearGradient>
    <linearGradient id="paint32_linear_402_5" x1="117.723" y1="145.903" x2="167.877" y2="153.666" gradientUnits="userSpaceOnUse">
    <stop stop-color="#9F9F9F"/>
    <stop offset="1" stop-color="#787877"/>
    </linearGradient>
    <linearGradient id="paint33_linear_402_5" x1="118.568" y1="153.782" x2="157.23" y2="154.801" gradientUnits="userSpaceOnUse">
    <stop stop-color="#CBCBCB"/>
    <stop offset="1" stop-color="#828380"/>
    </linearGradient>
    <linearGradient id="paint34_linear_402_5" x1="127.893" y1="159.076" x2="170.991" y2="160.096" gradientUnits="userSpaceOnUse">
    <stop stop-color="#1B0A5D"/>
    <stop offset="0.390625" stop-color="#1B0A5D"/>
    <stop offset="0.970597" stop-color="#010005"/>
    </linearGradient>
    <linearGradient id="paint35_linear_402_5" x1="157.469" y1="140.475" x2="134.108" y2="156.763" gradientUnits="userSpaceOnUse">
    <stop stop-color="#FFF9FF" stop-opacity="0.36"/>
    <stop offset="1" stop-color="#1B0A5D" stop-opacity="0"/>
    </linearGradient>
    <linearGradient id="paint36_linear_402_5" x1="125.751" y1="158.596" x2="172.65" y2="158.596" gradientUnits="userSpaceOnUse">
    <stop stop-color="#5B5C59"/>
    <stop offset="1" stop-color="#3F403E"/>
    </linearGradient>
    </defs>
    </svg>
    